<?xml version="1.0" encoding="UTF-8"?>
<svg id="Layer_1" data-name="Layer 1" xmlns="http://www.w3.org/2000/svg" viewBox="0 0 369 72">
  <defs>
    <style>
      .cls-1 {
        fill: #fff;
      }

      .cls-2 {
        fill: #3976a8;
      }

      .cls-3 {
        fill: #5d9cdb;
      }
    </style>
  </defs>
  <g>
    <g>
      <rect class="cls-3" x="5.01" y="5.74" width="113.35" height="60.53"/>
      <path class="cls-2" d="M119.68,67.59H3.68V4.41h115.99v63.17ZM6.33,64.94h110.71V7.06H6.33v57.88Z"/>
    </g>
    <rect class="cls-2" x="19.03" y="5.74" width="2.64" height="60.53"/>
    <rect class="cls-2" x="101.69" y="5.74" width="2.64" height="60.53"/>
    <path class="cls-1" d="M48.84,17.87c2.73-.45,6.74-.78,11.31-.78,5.57,0,9.47.84,12.15,2.95,2.28,1.78,3.51,4.46,3.51,7.91,0,4.74-3.4,8.02-6.63,9.19v.17c2.62,1.06,4.07,3.51,5.01,6.96,1.17,4.29,2.28,9.19,3.01,10.64h-8.69c-.56-1.11-1.5-4.12-2.56-8.75-1.06-4.74-2.67-5.96-6.18-6.02h-2.51v14.76h-8.41V17.87ZM57.25,34.02h3.34c4.23,0,6.74-2.12,6.74-5.4s-2.34-5.18-6.24-5.18c-2.06,0-3.23.11-3.84.28v10.31Z"/>
  </g>
  <g>
    <g>
      <rect class="cls-3" x="250.64" y="5.74" width="113.35" height="60.53"/>
      <path class="cls-2" d="M365.32,67.59h-115.99V4.41h115.99v63.17ZM251.96,64.94h110.71V7.06h-110.71v57.88Z"/>
    </g>
    <rect class="cls-2" x="264.67" y="5.74" width="2.64" height="60.53"/>
    <rect class="cls-2" x="347.33" y="5.74" width="2.64" height="60.53"/>
    <path class="cls-1" d="M293.89,17.23h8.41v16.6h.11c.84-1.45,1.73-2.79,2.62-4.12l8.47-12.48h10.47l-12.42,15.99,13.04,21.56h-9.86l-9.25-16.21-3.18,3.96v12.26h-8.41V17.23Z"/>
  </g>
  <g>
    <polygon class="cls-3" points="129.46 35.8 185.87 3.29 241.89 35.8 185.68 68.71 129.46 35.8"/>
    <path class="cls-2" d="M185.68,70.24l-58.85-34.45L185.87,1.76l58.65,34.04-58.84,34.44ZM132.09,35.81l53.59,31.37,53.59-31.37-53.4-30.99-53.78,31Z"/>
  </g>
  <path class="cls-1" d="M174.59,46.03c2.23,1.17,5.79,2.34,9.41,2.34,3.9,0,5.96-1.62,5.96-4.07s-1.78-3.68-6.3-5.24c-6.24-2.23-10.36-5.68-10.36-11.14,0-6.41,5.4-11.25,14.21-11.25,4.29,0,7.35.84,9.58,1.89l-1.89,6.8c-1.45-.72-4.18-1.78-7.8-1.78s-5.46,1.73-5.46,3.62c0,2.4,2.06,3.45,6.96,5.29,6.63,2.45,9.69,5.91,9.69,11.2,0,6.3-4.79,11.64-15.1,11.64-4.29,0-8.52-1.17-10.64-2.34l1.73-6.96Z"/>
</svg>